<?xml version="1.0" encoding="UTF-8"?>
<svg height='24' width='24' version="1.1" viewBox="0 0 1200 1200" xmlns="http://www.w3.org/2000/svg">
 <g>
  <path d="m169.69 253.12h507.19c18.281 0 33.047-14.766 33.047-33.047s-14.766-33.047-33.047-33.047h-507.19c-18.281 0-33.047 14.766-33.047 33.047s14.766 33.047 33.047 33.047z"/>
  <path d="m169.69 442.5h399.14c18.281 0 33.047-14.766 33.047-33.047s-14.766-33.047-33.047-33.047h-399.14c-18.281 0-33.047 14.766-33.047 33.047s14.766 33.047 33.047 33.047z"/>
  <path d="m395.16 565.78h-225.47c-18.281 0-33.047 14.766-33.047 33.047s14.766 33.047 33.047 33.047h225.47c18.281 0 33.047-14.766 33.047-33.047s-14.766-33.047-33.047-33.047z"/>
  <path d="m1163.9 1023.8-159.38-159.38c16.406-35.859 25.547-75.469 25.547-117.42 0-122.81-78.75-227.34-188.44-266.25v-377.11c0-54.609-44.531-98.906-99.141-98.906h-638.67c-54.609 0-99.141 44.297-99.141 98.906v660.94c0 26.484 10.312 51.328 29.062 70.078l158.91 159.14c18.75 18.75 43.594 29.062 70.078 29.062h420.94c20.391 4.6875 41.719 7.5 63.516 7.5 41.953 0 81.328-9.375 117.19-25.781l159.61 159.61c39.141 39.141 95.156 44.766 139.92 0 42.891-43.125 40.781-99.609 0-140.39zm-961.64-113.67-84.844-85.078h85.078v85.078zm66.094 46.641v-164.77c0-18.281-14.766-33.047-33.047-33.047h-164.53v-655.31c0-18.281 14.766-33.047 33.047-33.047h639.14c18.281 0 33.047 14.766 33.047 33.047v361.88c-9.375-0.9375-18.984-1.4062-28.594-1.4062-156.09 0-283.12 127.03-283.12 282.89 0 83.203 36.328 157.73 93.516 209.53h-289.45zm478.83 7.2656c-119.77 0-217.03-97.266-217.03-217.03s97.266-217.03 217.03-217.03 217.03 97.266 217.03 217.03-97.266 217.03-217.03 217.03zm370.08 153.05c-12.422 12.422-34.219 12.422-46.641 0l-148.12-148.12c17.344-13.594 33.047-29.297 46.641-46.641l148.12 148.12c13.594 13.594 13.125 33.75 0 46.641z"/>
 </g>
</svg>
